<svg width="190" height="154" viewBox="0 0 190 154" fill="none" xmlns="http://www.w3.org/2000/svg">
<circle cx="187.501" cy="2.50146" r="2.5" transform="rotate(90 187.501 2.50146)" fill="#BEFF03" fill-opacity="0.6"/>
<circle cx="187.501" cy="39.5015" r="2.5" transform="rotate(90 187.501 39.5015)" fill="#BEFF03" fill-opacity="0.6"/>
<circle cx="187.501" cy="76.5015" r="2.5" transform="rotate(90 187.501 76.5015)" fill="#BEFF03" fill-opacity="0.6"/>
<circle cx="187.501" cy="113.501" r="2.5" transform="rotate(90 187.501 113.501)" fill="#BEFF03" fill-opacity="0.6"/>
<circle cx="187.501" cy="150.501" r="2.5" transform="rotate(90 187.501 150.501)" fill="#BEFF03" fill-opacity="0.6"/>
<circle cx="150.501" cy="2.50098" r="2.5" transform="rotate(90 150.501 2.50098)" fill="#BEFF03" fill-opacity="0.6"/>
<circle cx="150.501" cy="39.5015" r="2.5" transform="rotate(90 150.501 39.5015)" fill="#BEFF03" fill-opacity="0.6"/>
<circle cx="150.501" cy="76.5015" r="2.5" transform="rotate(90 150.501 76.5015)" fill="#BEFF03" fill-opacity="0.6"/>
<circle cx="150.501" cy="113.501" r="2.5" transform="rotate(90 150.501 113.501)" fill="#BEFF03" fill-opacity="0.6"/>
<circle cx="150.501" cy="150.501" r="2.5" transform="rotate(90 150.501 150.501)" fill="#BEFF03" fill-opacity="0.6"/>
<circle cx="113.501" cy="2.50098" r="2.5" transform="rotate(90 113.501 2.50098)" fill="#BEFF03" fill-opacity="0.6"/>
<circle cx="113.501" cy="39.5015" r="2.5" transform="rotate(90 113.501 39.5015)" fill="#BEFF03" fill-opacity="0.6"/>
<circle cx="113.501" cy="76.5015" r="2.5" transform="rotate(90 113.501 76.5015)" fill="#BEFF03" fill-opacity="0.6"/>
<circle cx="113.501" cy="113.501" r="2.5" transform="rotate(90 113.501 113.501)" fill="#BEFF03" fill-opacity="0.6"/>
<circle cx="113.501" cy="150.501" r="2.5" transform="rotate(90 113.501 150.501)" fill="#BEFF03" fill-opacity="0.6"/>
<circle cx="76.5011" cy="2.50098" r="2.5" transform="rotate(90 76.5011 2.50098)" fill="#BEFF03" fill-opacity="0.6"/>
<circle cx="76.5011" cy="39.5015" r="2.5" transform="rotate(90 76.5011 39.5015)" fill="#BEFF03" fill-opacity="0.6"/>
<circle cx="76.5011" cy="76.5015" r="2.5" transform="rotate(90 76.5011 76.5015)" fill="#BEFF03" fill-opacity="0.6"/>
<circle cx="76.5011" cy="113.501" r="2.5" transform="rotate(90 76.5011 113.501)" fill="#BEFF03" fill-opacity="0.6"/>
<circle cx="76.5011" cy="150.501" r="2.5" transform="rotate(90 76.5011 150.501)" fill="#BEFF03" fill-opacity="0.6"/>
<circle cx="39.5011" cy="2.50098" r="2.5" transform="rotate(90 39.5011 2.50098)" fill="#BEFF03" fill-opacity="0.6"/>
<circle cx="39.5011" cy="39.5015" r="2.5" transform="rotate(90 39.5011 39.5015)" fill="#BEFF03" fill-opacity="0.6"/>
<circle cx="39.5011" cy="76.5015" r="2.5" transform="rotate(90 39.5011 76.5015)" fill="#BEFF03" fill-opacity="0.6"/>
<circle cx="39.5011" cy="113.501" r="2.5" transform="rotate(90 39.5011 113.501)" fill="#BEFF03" fill-opacity="0.6"/>
<circle cx="39.5011" cy="150.501" r="2.5" transform="rotate(90 39.5011 150.501)" fill="#BEFF03" fill-opacity="0.6"/>
<circle cx="2.50108" cy="2.50098" r="2.5" transform="rotate(90 2.50108 2.50098)" fill="#BEFF03" fill-opacity="0.6"/>
<circle cx="2.5011" cy="39.5015" r="2.5" transform="rotate(90 2.5011 39.5015)" fill="#BEFF03" fill-opacity="0.6"/>
<circle cx="2.5011" cy="76.5015" r="2.5" transform="rotate(90 2.5011 76.5015)" fill="#BEFF03" fill-opacity="0.6"/>
<circle cx="2.5011" cy="113.501" r="2.5" transform="rotate(90 2.5011 113.501)" fill="#BEFF03" fill-opacity="0.6"/>
<circle cx="2.5011" cy="150.501" r="2.5" transform="rotate(90 2.5011 150.501)" fill="#BEFF03" fill-opacity="0.6"/>
</svg>
