<svg width="190" height="153" viewBox="0 0 190 153" fill="none" xmlns="http://www.w3.org/2000/svg">
<circle cx="187.5" cy="2.50049" r="2.5" transform="rotate(90 187.5 2.50049)" fill="#FFC701"/>
<circle cx="187.5" cy="39.5005" r="2.5" transform="rotate(90 187.5 39.5005)" fill="#FFC701"/>
<circle cx="187.5" cy="76.5005" r="2.5" transform="rotate(90 187.5 76.5005)" fill="#FFC701"/>
<circle cx="187.5" cy="113.5" r="2.5" transform="rotate(90 187.5 113.5)" fill="#FFC701"/>
<circle cx="187.5" cy="150.5" r="2.5" transform="rotate(90 187.5 150.5)" fill="#FFC701"/>
<circle cx="150.5" cy="2.5" r="2.5" transform="rotate(90 150.5 2.5)" fill="#FFC701"/>
<circle cx="150.5" cy="39.5005" r="2.5" transform="rotate(90 150.5 39.5005)" fill="#FFC701"/>
<circle cx="150.5" cy="76.5005" r="2.5" transform="rotate(90 150.5 76.5005)" fill="#FFC701"/>
<circle cx="150.5" cy="113.5" r="2.5" transform="rotate(90 150.5 113.5)" fill="#FFC701"/>
<circle cx="150.5" cy="150.5" r="2.5" transform="rotate(90 150.5 150.5)" fill="#FFC701"/>
<circle cx="113.5" cy="2.5" r="2.5" transform="rotate(90 113.5 2.5)" fill="#FFC701"/>
<circle cx="113.5" cy="39.5005" r="2.5" transform="rotate(90 113.5 39.5005)" fill="#FFC701"/>
<circle cx="113.5" cy="76.5005" r="2.5" transform="rotate(90 113.5 76.5005)" fill="#FFC701"/>
<circle cx="113.5" cy="113.5" r="2.5" transform="rotate(90 113.5 113.5)" fill="#FFC701"/>
<circle cx="113.5" cy="150.5" r="2.5" transform="rotate(90 113.5 150.5)" fill="#FFC701"/>
<circle cx="76.5" cy="2.5" r="2.5" transform="rotate(90 76.5 2.5)" fill="#FFC701"/>
<circle cx="76.5" cy="39.5005" r="2.5" transform="rotate(90 76.5 39.5005)" fill="#FFC701"/>
<circle cx="76.5" cy="76.5005" r="2.5" transform="rotate(90 76.5 76.5005)" fill="#FFC701"/>
<circle cx="76.5" cy="113.5" r="2.5" transform="rotate(90 76.5 113.5)" fill="#FFC701"/>
<circle cx="76.5" cy="150.5" r="2.5" transform="rotate(90 76.5 150.5)" fill="#FFC701"/>
<circle cx="39.5" cy="2.5" r="2.5" transform="rotate(90 39.5 2.5)" fill="#FFC701"/>
<circle cx="39.5" cy="39.5005" r="2.5" transform="rotate(90 39.5 39.5005)" fill="#FFC701"/>
<circle cx="39.5" cy="76.5005" r="2.5" transform="rotate(90 39.5 76.5005)" fill="#FFC701"/>
<circle cx="39.5" cy="113.5" r="2.5" transform="rotate(90 39.5 113.5)" fill="#FFC701"/>
<circle cx="39.5" cy="150.5" r="2.5" transform="rotate(90 39.5 150.5)" fill="#FFC701"/>
<circle cx="2.49998" cy="2.5" r="2.5" transform="rotate(90 2.49998 2.5)" fill="#FFC701"/>
<circle cx="2.5" cy="39.5005" r="2.5" transform="rotate(90 2.5 39.5005)" fill="#FFC701"/>
<circle cx="2.5" cy="76.5005" r="2.5" transform="rotate(90 2.5 76.5005)" fill="#FFC701"/>
<circle cx="2.49999" cy="113.5" r="2.5" transform="rotate(90 2.49999 113.5)" fill="#FFC701"/>
<circle cx="2.49999" cy="150.5" r="2.5" transform="rotate(90 2.49999 150.5)" fill="#FFC701"/>
</svg>
