<svg width="153" height="227" viewBox="0 0 153 227" fill="none" xmlns="http://www.w3.org/2000/svg">
<circle cx="150.501" cy="224.5" r="2.5" transform="rotate(-180 150.501 224.5)" fill="#11ECDF"/>
<circle cx="113.501" cy="224.5" r="2.5" transform="rotate(-180 113.501 224.5)" fill="#11ECDF"/>
<circle cx="76.5006" cy="224.5" r="2.5" transform="rotate(-180 76.5006 224.5)" fill="#11ECDF"/>
<circle cx="39.5006" cy="224.5" r="2.5" transform="rotate(-180 39.5006 224.5)" fill="#11ECDF"/>
<circle cx="2.50061" cy="224.5" r="2.5" transform="rotate(-180 2.50061 224.5)" fill="#11ECDF"/>
<circle cx="150.501" cy="187.5" r="2.5" transform="rotate(-180 150.501 187.5)" fill="#11ECDF"/>
<circle cx="113.501" cy="187.5" r="2.5" transform="rotate(-180 113.501 187.5)" fill="#11ECDF"/>
<circle cx="76.5006" cy="187.5" r="2.5" transform="rotate(-180 76.5006 187.5)" fill="#11ECDF"/>
<circle cx="39.5006" cy="187.5" r="2.5" transform="rotate(-180 39.5006 187.5)" fill="#11ECDF"/>
<circle cx="2.50061" cy="187.5" r="2.5" transform="rotate(-180 2.50061 187.5)" fill="#11ECDF"/>
<circle cx="150.501" cy="150.5" r="2.5" transform="rotate(-180 150.501 150.5)" fill="#11ECDF"/>
<circle cx="113.501" cy="150.5" r="2.5" transform="rotate(-180 113.501 150.5)" fill="#11ECDF"/>
<circle cx="76.5006" cy="150.5" r="2.5" transform="rotate(-180 76.5006 150.5)" fill="#11ECDF"/>
<circle cx="39.5006" cy="150.5" r="2.5" transform="rotate(-180 39.5006 150.5)" fill="#11ECDF"/>
<circle cx="2.50061" cy="150.5" r="2.5" transform="rotate(-180 2.50061 150.5)" fill="#11ECDF"/>
<circle cx="150.501" cy="113.5" r="2.5" transform="rotate(-180 150.501 113.5)" fill="#11ECDF"/>
<circle cx="113.501" cy="113.5" r="2.5" transform="rotate(-180 113.501 113.5)" fill="#11ECDF"/>
<circle cx="76.5006" cy="113.5" r="2.5" transform="rotate(-180 76.5006 113.5)" fill="#11ECDF"/>
<circle cx="39.5006" cy="113.5" r="2.5" transform="rotate(-180 39.5006 113.5)" fill="#11ECDF"/>
<circle cx="2.50061" cy="113.5" r="2.5" transform="rotate(-180 2.50061 113.5)" fill="#11ECDF"/>
<circle cx="150.501" cy="76.5" r="2.5" transform="rotate(-180 150.501 76.5)" fill="#11ECDF"/>
<circle cx="113.501" cy="76.5" r="2.5" transform="rotate(-180 113.501 76.5)" fill="#11ECDF"/>
<circle cx="76.5006" cy="76.5" r="2.5" transform="rotate(-180 76.5006 76.5)" fill="#11ECDF"/>
<circle cx="39.5006" cy="76.5" r="2.5" transform="rotate(-180 39.5006 76.5)" fill="#11ECDF"/>
<circle cx="2.50061" cy="76.5" r="2.5" transform="rotate(-180 2.50061 76.5)" fill="#11ECDF"/>
<circle cx="150.501" cy="39.5" r="2.5" transform="rotate(-180 150.501 39.5)" fill="#11ECDF"/>
<circle cx="113.501" cy="39.5" r="2.5" transform="rotate(-180 113.501 39.5)" fill="#11ECDF"/>
<circle cx="76.5006" cy="39.5" r="2.5" transform="rotate(-180 76.5006 39.5)" fill="#11ECDF"/>
<circle cx="39.5006" cy="39.5" r="2.5" transform="rotate(-180 39.5006 39.5)" fill="#11ECDF"/>
<circle cx="2.50061" cy="39.5" r="2.5" transform="rotate(-180 2.50061 39.5)" fill="#11ECDF"/>
<circle cx="150.501" cy="2.5" r="2.5" transform="rotate(-180 150.501 2.5)" fill="#11ECDF"/>
<circle cx="113.501" cy="2.5" r="2.5" transform="rotate(-180 113.501 2.5)" fill="#11ECDF"/>
<circle cx="76.5006" cy="2.5" r="2.5" transform="rotate(-180 76.5006 2.5)" fill="#11ECDF"/>
<circle cx="39.5006" cy="2.5" r="2.5" transform="rotate(-180 39.5006 2.5)" fill="#11ECDF"/>
<circle cx="2.50061" cy="2.5" r="2.5" transform="rotate(-180 2.50061 2.5)" fill="#11ECDF"/>
</svg>
